<svg xmlns="http://www.w3.org/2000/svg" width="56" height="27" viewBox="0 0 56 27" fill="none">
  <path d="M9.30232 18.8708C9.27374 18.7379 9.2547 18.6336 9.22613 18.5102C9.19755 18.4343 9.17851 18.3774 9.17851 18.3014C9.17851 18.273 9.14994 18.254 9.14994 18.2255C9.14994 18.1496 9.12136 18.0737 9.12136 17.9883C9.12136 17.9598 9.09279 17.9409 9.09279 17.9124C9.09279 17.808 9.06422 17.7036 9.06422 17.6277C9.06422 17.5518 9.09279 17.4759 9.0166 17.419V17.0014V15.4927V15.3124V15.1606V11.6212V11.4693V11.3175V4.86495V4.71312V4.39998C9.04517 4.37152 9.06422 4.37152 9.09279 4.35254H12.3595V11.327C12.3595 11.3555 12.388 11.3555 12.388 11.3744C12.4166 11.346 12.4642 11.346 12.4928 11.327C12.569 11.2985 12.6737 11.2795 12.7309 11.1941C12.8833 11.1467 13.0166 11.0898 13.1785 11.0423C13.388 10.9949 13.5976 10.9379 13.8071 10.8905C14.169 10.7861 14.5404 10.7387 14.9023 10.7102C15.3214 10.7102 15.769 10.6817 16.1785 10.7576C16.4356 10.8051 16.6737 10.8336 16.9404 10.8905C17.5976 11.0708 18.1976 11.3365 18.769 11.7255C19.1595 11.9817 19.5499 12.2949 19.8642 12.6649C19.969 12.7978 20.0928 12.9212 20.2261 13.0255C20.3023 13.1584 20.3785 13.2628 20.4642 13.3861C20.8261 13.8795 21.0928 14.4299 21.2737 15.0277C21.3499 15.2649 21.4071 15.5212 21.4547 15.7584C21.5023 15.9956 21.5595 16.2518 21.5595 16.489C21.5595 16.935 21.588 17.3525 21.5118 17.789C21.4356 18.254 21.3309 18.7 21.169 19.146C20.988 19.6394 20.7214 20.1044 20.4071 20.5219C19.9118 21.1956 19.3118 21.7744 18.5785 22.2109C17.9785 22.5715 17.3499 22.8372 16.6737 22.989C16.2833 23.0649 15.8928 23.1219 15.5023 23.1409C14.8452 23.1693 14.2261 23.0934 13.5976 22.9036C13.4928 22.8752 13.4166 22.8562 13.3118 22.8562C13.2833 22.8277 13.2642 22.8277 13.2071 22.8087C13.1785 22.8087 13.1309 22.8087 13.1023 22.7803C13.0737 22.7518 13.0547 22.7518 13.0261 22.7328C12.9976 22.7328 12.9785 22.7328 12.9499 22.7044L12.9214 22.6759C12.8928 22.6759 12.8737 22.6474 12.8166 22.6474C12.788 22.619 12.769 22.619 12.7118 22.6C12.6833 22.6 12.6642 22.6 12.6642 22.5715C12.6356 22.4956 12.5309 22.4956 12.4547 22.4671H12.4261C12.3976 22.4387 12.3785 22.4387 12.3499 22.4197C12.3214 22.4197 12.3023 22.4197 12.3023 22.3912C12.1976 22.3343 12.1214 22.2868 12.0166 22.2109C11.9404 22.1635 11.8642 22.135 11.8071 22.0781C11.6547 21.9737 11.5214 21.8409 11.3595 21.7365C11.3118 21.708 11.2833 21.6606 11.2261 21.6321C11.169 21.6036 11.1214 21.5562 11.0737 21.5277C11.0452 21.4993 11.0261 21.4803 10.9976 21.4518C10.969 21.4233 10.9404 21.4044 10.9214 21.3759L10.8166 21.2715L10.7404 21.1956C10.7404 21.1671 10.7118 21.1671 10.7118 21.1482L10.6356 21.0722C10.6071 21.0438 10.6071 21.0248 10.588 21.0248L10.4833 20.9204L10.4071 20.8445C10.3785 20.816 10.3595 20.7686 10.3309 20.7401C10.3023 20.6927 10.2547 20.6358 10.2261 20.5883C10.1785 20.5124 10.0928 20.408 10.0452 20.3321C10.0166 20.3036 9.99755 20.2562 9.96898 20.2277C9.92136 20.1518 9.89279 20.0759 9.83565 19.9905C9.80708 19.962 9.77851 19.9431 9.77851 19.9146V19.8861C9.74993 19.8577 9.74993 19.8102 9.73089 19.7817C9.73089 19.7533 9.70232 19.7533 9.70232 19.7343C9.67374 19.6584 9.62613 19.6014 9.59755 19.5255V19.4971C9.59755 19.4686 9.56898 19.4496 9.56898 19.4212C9.52136 19.2883 9.46422 19.1649 9.4166 19.0606C9.34993 18.9752 9.33089 18.9277 9.30232 18.8708ZM17.7595 15.227C17.6071 14.9423 17.369 14.7336 17.1023 14.5248C16.6356 14.1642 16.1118 13.9555 15.5118 13.8985C15.0166 13.8701 14.5499 13.927 14.0737 14.1358C13.3976 14.4489 12.8737 14.9139 12.5309 15.5971C12.3976 15.8533 12.2928 16.119 12.2928 16.4036C12.2166 16.4795 12.2452 16.5839 12.2452 16.6883V17.0489C12.2452 17.1533 12.2166 17.2861 12.2928 17.362C12.2928 17.419 12.2928 17.4664 12.3214 17.5423C12.3499 17.5708 12.3499 17.6182 12.369 17.6467V17.7226C12.3976 17.827 12.3976 17.9598 12.5023 18.0358C12.5023 18.0642 12.5023 18.0832 12.5309 18.0832C12.5595 18.1117 12.5595 18.1591 12.588 18.1876C12.588 18.216 12.6166 18.216 12.6166 18.235L12.6452 18.2635V18.292C12.6737 18.3204 12.6928 18.3489 12.6928 18.3679V18.3963C12.7214 18.4248 12.7404 18.4438 12.7404 18.5007C12.7404 18.5007 12.7404 18.5292 12.769 18.5292L12.7976 18.5577C12.9023 18.7379 13.0356 18.8993 13.2166 19.0226C13.2928 19.0701 13.3499 19.1555 13.4261 19.2029C13.4547 19.2314 13.4737 19.2598 13.5023 19.2788C13.5309 19.3073 13.5785 19.3263 13.6071 19.3547C13.6547 19.3832 13.7404 19.4306 13.788 19.4591C13.9214 19.5066 14.0452 19.592 14.1785 19.6394C14.2071 19.6394 14.2547 19.6394 14.2833 19.6679C14.3309 19.7722 14.4166 19.7153 14.4928 19.7438C15.0452 19.8956 15.588 19.8766 16.1118 19.7153C16.6833 19.535 17.1785 19.1934 17.5785 18.7285C17.7595 18.4912 17.9404 18.235 18.0261 17.9503C18.0547 17.9219 18.0737 17.9029 18.0737 17.846C18.1785 17.4854 18.2547 17.1153 18.2071 16.7547V16.4985C18.1785 16.4226 18.1785 16.3467 18.1499 16.2613V16.1569C18.1023 16.0241 18.0737 15.9197 18.0166 15.7963C18.0166 15.7679 18.0166 15.7489 17.988 15.7489C17.9595 15.673 17.9118 15.616 17.8833 15.5401C17.8833 15.5117 17.8833 15.4832 17.8547 15.4832C17.8261 15.4547 17.8261 15.4358 17.7976 15.4073V15.3788C17.8166 15.3314 17.788 15.2839 17.7595 15.227ZM36.6452 23.0365H36.388C36.3118 22.989 36.3118 22.9036 36.3118 22.8277V21.0817V20.873V19.7817V18.3489V17.5139V16.7073V15.3788V14.8285V13.5949V12.9971V12.8642V9.37225V9.2394V9.08758V5.26349V5.11166V4.40947C36.388 4.38101 36.4452 4.36203 36.5214 4.36203H39.4452C39.4928 4.36203 39.5785 4.3905 39.6261 4.40947V16.3847C39.6261 16.3847 39.6547 16.3847 39.6547 16.4131C39.6833 16.3657 39.7023 16.3372 39.7309 16.2803L39.8071 16.2044C39.8356 16.1759 39.8547 16.1474 39.8547 16.1285L39.8833 16.1C39.9118 16.1 39.9118 16.0715 39.9404 16.0715C39.988 15.9956 40.0737 15.9197 40.1214 15.8343L40.169 15.7868C40.2737 15.635 40.4071 15.5022 40.5118 15.3409C40.5404 15.3409 40.5404 15.3124 40.569 15.3124C41.1976 14.5343 41.8261 13.7467 42.4452 12.9686C42.6547 12.7124 42.8356 12.4752 43.0452 12.2095L43.1214 12.1336C43.169 12.0766 43.1975 12.0292 43.2547 11.9533C43.3023 11.9058 43.3595 11.8489 43.388 11.8014C43.4166 11.773 43.4166 11.754 43.4356 11.754L43.5118 11.6781L43.588 11.6022C43.6166 11.5737 43.6166 11.5547 43.6452 11.5263C43.6737 11.4978 43.6928 11.4503 43.7214 11.4219C43.7975 11.4219 43.8261 11.3744 43.8261 11.289C43.8547 11.2606 43.8737 11.2416 43.9023 11.2131C43.9595 11.1657 43.9785 11.1087 44.0356 11.0328C44.0833 10.9854 44.1404 10.9285 44.169 10.881C44.1975 10.8525 44.2166 10.8525 44.2452 10.8336H48.0547C47.9785 10.9379 47.9023 11.0708 47.7975 11.1752C47.769 11.2226 47.7214 11.2795 47.6928 11.327C47.6452 11.3744 47.588 11.4598 47.5404 11.5073C47.5118 11.5358 47.4928 11.5358 47.4928 11.5642C47.0737 12.0861 46.6547 12.5795 46.2356 13.1014C45.8166 13.6233 45.3975 14.1452 44.9595 14.6387C44.5404 15.1606 44.0928 15.6825 43.6833 16.2044C43.6071 16.2803 43.5023 16.3847 43.5023 16.4606C43.5023 16.5649 43.6071 16.6693 43.6833 16.7452C43.8166 16.9255 43.969 17.0868 44.1023 17.2387C44.1023 17.2671 44.1023 17.2671 44.1309 17.2861C44.1595 17.3146 44.1785 17.3336 44.1785 17.362C44.2261 17.4095 44.2547 17.4664 44.3118 17.4949L44.388 17.5708C44.4356 17.6182 44.4642 17.6752 44.5214 17.7511C44.5499 17.7795 44.5785 17.7985 44.5785 17.827C44.6071 17.8555 44.6261 17.9029 44.6547 17.9314L44.7309 18.0073C44.7309 18.0358 44.7595 18.0358 44.7595 18.0642V18.0927L44.788 18.1212L44.8642 18.1971C44.8928 18.2255 44.9214 18.273 44.9404 18.3014C44.969 18.3584 45.0166 18.4058 45.0452 18.4533C45.0737 18.4817 45.0928 18.5292 45.1214 18.5577L45.1499 18.5861C45.1785 18.6146 45.2071 18.6336 45.2261 18.662C45.2547 18.6905 45.2737 18.719 45.3023 18.7379C45.3499 18.7854 45.3785 18.8423 45.4356 18.9182L45.5118 18.9941C45.5404 19.0226 45.5595 19.0701 45.588 19.0985C45.6166 19.146 45.6642 19.1744 45.6928 19.2314C45.7214 19.2883 45.769 19.3073 45.7976 19.3642L45.8261 19.3927L45.9023 19.4686C45.9309 19.4971 45.9499 19.516 45.9785 19.573C46.1309 19.7817 46.3214 20.019 46.4737 20.2277C46.5214 20.2752 46.5785 20.3606 46.6261 20.408C46.6547 20.4555 46.6833 20.4839 46.7309 20.5409C46.7785 20.5883 46.8071 20.6452 46.8642 20.6927C46.8928 20.7212 46.9118 20.7686 46.9404 20.7971C46.969 20.854 47.0166 20.9014 47.0452 20.9489C47.0737 20.9963 47.1214 21.0248 47.1499 21.0817C47.2547 21.2146 47.3309 21.3664 47.4356 21.4993C47.7785 21.9452 48.1404 22.4102 48.4833 22.8562C48.5118 22.9036 48.5118 22.9606 48.5309 23.008H44.3499C44.0642 22.619 43.7976 22.2299 43.5118 21.8409C43.4833 21.8124 43.4642 21.7934 43.4642 21.7365C43.4166 21.689 43.388 21.6321 43.3309 21.5562C43.3309 21.5277 43.3023 21.5277 43.3023 21.5087C43.2737 21.4803 43.2547 21.4518 43.2261 21.4328C43.2261 21.4044 43.1975 21.4044 43.1975 21.3854C43.1499 21.3095 43.1499 21.2051 43.0452 21.1766C43.0166 21.1766 43.0166 21.1482 42.9976 21.1482C42.9499 21.0722 42.9214 20.9963 42.8642 20.9394C42.8642 20.9109 42.8356 20.9109 42.8356 20.892C42.7023 20.7117 42.5499 20.5029 42.4166 20.3226C42.369 20.2467 42.3118 20.1898 42.2642 20.1139C42.2356 20.0854 42.2166 20.0664 42.188 20.0095C42.1404 19.962 42.1118 19.9051 42.0547 19.8576C42.0261 19.8292 42.0071 19.8102 41.9785 19.7533C41.9499 19.7058 41.9309 19.6774 41.9023 19.6204C41.9023 19.592 41.8737 19.592 41.8737 19.5635C41.8452 19.535 41.8261 19.4876 41.7976 19.4591C41.769 19.4117 41.7214 19.3547 41.6928 19.3073V19.2788L41.6166 19.2029C41.588 19.1744 41.569 19.1555 41.569 19.0985C41.5404 19.0701 41.5214 19.0511 41.5214 19.0226C41.4928 18.9941 41.4737 18.9657 41.4737 18.9467C41.4452 18.9182 41.4261 18.8708 41.3975 18.8423C41.369 18.7949 41.369 18.7095 41.2642 18.6905C41.2356 18.662 41.2166 18.6146 41.188 18.5861C41.1595 18.5387 41.1118 18.4817 41.0833 18.4343C41.0833 18.4343 41.0833 18.4058 41.0547 18.4058C41.0261 18.3774 41.0071 18.3489 41.0071 18.3299C40.9595 18.2825 40.9309 18.1971 40.8737 18.1496C40.8452 18.1212 40.8261 18.1022 40.8261 18.0737C40.7975 18.0263 40.7499 17.9978 40.7214 17.9409C40.6928 17.9124 40.6737 17.8649 40.6452 17.8365C40.6166 17.789 40.6166 17.7321 40.5976 17.7036C40.4642 17.5233 40.3404 17.3431 40.2071 17.1533C40.1023 17.0204 39.9976 16.8686 39.8928 16.7358C39.8642 16.6883 39.8642 16.6314 39.8356 16.6029C39.788 16.5555 39.7595 16.6029 39.788 16.6504V22.9701C39.7595 22.9985 39.7404 23.027 39.7118 23.046H36.9214C36.6737 23.0365 36.6452 23.0365 36.6452 23.0365ZM24.8166 23.0365H23.9023C23.8737 22.9606 23.8547 22.8847 23.8547 22.7803V14.9708V4.63721V4.37152H27.1214V22.7233C27.1214 22.8277 27.1214 22.9036 27.0928 23.008H24.9023C24.8642 23.0365 24.8452 23.0365 24.8166 23.0365Z" fill="white"/>
  <path d="M18.5791 3.48926C20.1981 3.48926 21.5029 4.78926 21.5029 6.4024C21.5029 8.01554 20.1886 9.32502 18.5791 9.32502C16.9696 9.32502 15.6553 8.02502 15.6553 6.41189C15.6553 4.79875 16.96 3.48926 18.5791 3.48926Z" fill="#E63C46"/>
  <path d="M30.0459 22.8844C30.0459 22.8085 30.0745 22.7326 30.0745 22.6756V21.4231C30.0745 21.3756 30.0745 21.2902 30.0459 21.2428C30.0459 21.2143 30.0745 21.1669 30.0745 21.1384V19.3639C30.0745 19.3355 30.0745 19.288 30.0459 19.2596C30.0459 19.2311 30.0745 19.1837 30.0745 19.1552V16.9917C30.0745 16.9442 30.0745 16.9158 30.0459 16.8588C30.0459 16.8114 30.0745 16.7829 30.0745 16.726V14.98C30.0745 14.9326 30.0745 14.9041 30.0459 14.8472C30.0459 14.5056 30.0745 14.1734 30.0745 13.8318C30.0745 13.7559 30.0745 13.68 30.0459 13.6231C30.0459 13.5756 30.0745 13.5187 30.0745 13.4712V12.5129C30.0745 12.4654 30.0745 12.4085 30.0459 12.361C30.0459 12.3136 30.0745 12.2282 30.0745 12.1807V11.0136V10.8333C30.2268 10.7858 32.9507 10.7858 33.3697 10.8048C33.3697 11.0136 33.3697 11.2223 33.3983 11.4311V23.0362H30.3126C30.2364 23.0362 30.1602 23.0077 30.103 23.0077C30.0459 22.9888 30.0459 22.9318 30.0459 22.8844Z" fill="white"/>
</svg>