<svg
									xmlns="http://www.w3.org/2000/svg"
									width="47"
									height="24"
									viewBox="0 0 47 24"
									fill="none"
								>
									<path
										d="M40.7928 8.7535C40.4907 8.7535 40.2428 8.50561 40.2428 8.2035V5.78662H40.0414C38.7942 5.78662 38.3294 5.99577 38.3294 7.1345V9.79926V9.81476V10.3957C38.3294 10.419 38.3294 10.4345 38.3294 10.4577V14.1837C38.3294 14.6408 38.2442 14.9971 38.0583 15.2837C37.7175 15.8105 37.0435 16.0506 35.9668 16.0506C34.89 16.0506 34.2161 15.8105 33.8753 15.2837C33.6971 15.0048 33.6041 14.6408 33.6041 14.1837V10.4577C33.6041 10.4345 33.6041 10.419 33.6041 10.3957V9.81476V9.79926V7.1345C33.6041 5.99577 33.1394 5.78662 31.8922 5.78662H31.4971C30.2499 5.78662 29.7852 5.99577 29.7852 7.1345V14.1837C29.7852 15.3147 30.0408 16.2753 30.5366 17.0499C31.4894 18.5527 33.3408 19.3506 35.9668 19.3506H35.99C38.6161 19.3506 40.4675 18.5527 41.4203 17.0499C41.916 16.2753 42.1717 15.3147 42.1717 14.1837V8.7535H40.7928Z"
										fill="white"
									/>
									<path d="M44.1084 1.96765H46.9746V4.86481H44.1084V1.96765Z" fill="white" />
									<path
										d="M46.5717 4.86475H44.5189C44.2943 4.86475 44.1161 4.68658 44.1161 4.46193V2.37815C44.1161 2.1535 44.2943 1.97533 44.5189 1.97533H46.5717C46.7963 1.97533 46.9745 2.1535 46.9745 2.37815V4.46193C46.9745 4.67883 46.7963 4.86475 46.5717 4.86475ZM43.8295 1.96759H42.4351C42.2802 1.96759 42.1562 1.84365 42.1562 1.68872V0.278871C42.1562 0.123943 42.2802 0 42.4351 0H43.8295C43.9844 0 44.1083 0.123943 44.1083 0.278871V1.68872C44.1083 1.84365 43.9844 1.96759 43.8295 1.96759Z"
										fill="white"
									/>
									<path
										d="M8.48271 10.0781C8.48271 11.7514 8.05666 12.6577 5.80245 12.6577H2.33206V8.34294C2.33206 7.74647 2.5567 7.52182 3.15318 7.52182H5.80245C7.49891 7.52182 8.48271 7.94013 8.48271 10.0781ZM5.80245 5.78662H2.81234C1.21658 5.78662 0.503906 6.49929 0.503906 8.09506V18.359C0.503906 18.9788 0.705313 19.1724 1.31728 19.1724H1.51869C2.1384 19.1724 2.33206 18.971 2.33206 18.359V14.3696H5.80245C8.87778 14.3696 10.3186 13.0063 10.3186 10.0781C10.3109 7.14999 8.87778 5.78662 5.80245 5.78662ZM16.7636 14.5633V15.9732C16.7636 17.1196 16.3376 17.7858 14.1686 17.7858C12.7355 17.7858 12.0306 17.2668 12.0306 16.1978C12.0306 15.0281 12.7277 14.5711 14.5327 14.5711H16.7636V14.5633ZM14.1608 8.73026C12.9756 8.73026 12.232 8.87744 11.9531 8.93167C11.4573 9.04012 11.2482 9.17955 11.2482 9.74504V9.90771C11.2482 10.1324 11.2792 10.2873 11.3489 10.388C11.4341 10.5119 11.5658 10.5817 11.7439 10.5817C11.8292 10.5817 11.9299 10.5662 12.0538 10.5352C12.3404 10.4655 13.2467 10.3183 14.246 10.3183C16.0355 10.3183 16.7636 10.814 16.7636 12.0302V13.1147H14.5094C11.6123 13.1147 10.2566 14.0908 10.2566 16.1901C10.2566 18.2274 11.651 19.3506 14.1841 19.3506C17.1897 19.3506 18.5375 18.3281 18.5375 16.0274V12.0302C18.5375 9.81476 17.1045 8.73026 14.1608 8.73026ZM28.453 9.21054C28.3213 9.04786 28.0811 9.02462 27.841 9.02462H27.6628C27.0586 9.02462 26.8262 9.21054 26.6868 9.79152L25.0135 16.7633C24.8044 17.6231 24.51 17.7781 24.0065 17.7781C23.3868 17.7781 23.1467 17.6309 22.8988 16.7633L21.0009 9.79152C20.846 9.21054 20.6136 9.03237 20.0094 9.03237H19.8467C19.6066 9.03237 19.3587 9.05561 19.2347 9.21828C19.1108 9.38096 19.1495 9.6211 19.2192 9.86124L21.1403 16.895C21.5044 18.2429 21.9305 19.3506 23.5262 19.3506C23.8283 19.3506 24.0995 19.3119 24.3319 19.2344C23.8438 20.7604 23.3558 21.4344 21.8995 21.5816C21.6051 21.6048 21.4115 21.6513 21.303 21.7907C21.1946 21.9379 21.2178 22.1548 21.2565 22.3407L21.2953 22.5189C21.3805 22.9372 21.5277 23.1928 22.0002 23.1928C22.0467 23.1928 22.1009 23.1928 22.1551 23.1851C24.3241 23.0456 25.4938 21.8759 26.1755 19.1492L28.4994 9.85349C28.5459 9.61335 28.5769 9.37321 28.453 9.21054ZM43.5585 4.85706H40.793C40.4909 4.85706 40.243 5.10494 40.243 5.40705V5.79437H40.4366C41.6838 5.79437 42.1486 6.00353 42.1486 7.14225V8.76125H43.5585C43.8606 8.76125 44.1084 8.51336 44.1084 8.21125V5.40705C44.1084 5.10494 43.8606 4.8648 43.5585 4.85706Z"
										fill="white"
									/>
								</svg>